<?xml version="1.0" standalone="no"?>
<!DOCTYPE svg PUBLIC "-//W3C//DTD SVG 20010904//EN"
 "http://www.w3.org/TR/2001/REC-SVG-20010904/DTD/svg10.dtd">
<svg version="1.0" xmlns="http://www.w3.org/2000/svg"
 width="1200.000000pt" height="1200.000000pt" viewBox="0 0 1200.000000 1200.000000"
 preserveAspectRatio="xMidYMid meet">

<g transform="translate(0.000000,1200.000000) scale(0.100000,-0.100000)"
fill="#000000" stroke="none">
<path d="M0 6000 l0 -6000 6000 0 6000 0 0 6000 0 6000 -6000 0 -6000 0 0
-6000z m6450 4226 c663 -95 1212 -327 1735 -734 196 -153 514 -485 667 -697
341 -474 574 -1069 638 -1635 56 -502 12 -958 -141 -1449 -128 -412 -363 -886
-656 -1323 l-92 -137 209 -308 209 -308 -453 -3 -453 -2 -124 -138 c-536 -594
-1326 -1293 -1917 -1696 l-72 -50 -72 50 c-591 403 -1381 1102 -1917 1696
l-124 138 -452 2 -452 3 208 307 209 307 -92 138 c-213 318 -425 712 -551
1024 -107 265 -200 607 -242 891 -44 303 -35 722 21 1038 96 530 306 1031 612
1455 153 212 471 544 667 697 576 448 1170 681 1920 752 97 9 615 -4 715 -18z"/>
<path d="M5760 9454 c-311 -37 -510 -84 -731 -170 -842 -327 -1455 -1020
-1674 -1894 -156 -621 -80 -1295 211 -1875 l68 -135 2366 0 2366 0 66 133
c178 355 264 676 287 1074 29 495 -76 976 -310 1423 -336 640 -922 1123 -1626
1339 -240 74 -439 102 -743 106 -135 2 -261 1 -280 -1z m287 -1525 c125 -47
143 -226 30 -298 -18 -11 -25 -21 -17 -21 66 -1 214 -28 308 -56 317 -96 576
-299 745 -583 107 -180 159 -356 181 -613 l5 -58 -1311 0 -1310 0 6 73 c13
141 28 220 63 330 66 208 162 367 318 523 221 221 483 345 803 379 l62 7 -32
21 c-49 33 -82 106 -73 163 15 102 127 169 222 133z m1573 -1787 c0 -4 -73
-80 -163 -170 l-162 -162 -1305 0 -1305 0 -162 162 c-90 90 -163 166 -163 170
0 5 734 8 1630 8 897 0 1630 -3 1630 -8z"/>
<path d="M7141 5189 c-151 -19 -211 -128 -211 -381 0 -53 5 -109 10 -124 7
-19 7 -30 -1 -40 -17 -20 -4 -621 15 -674 20 -57 63 -104 126 -137 50 -25 65
-28 155 -28 128 0 176 21 233 101 55 78 66 149 59 395 -13 506 -20 665 -29
676 -5 7 -7 17 -4 22 11 17 -23 84 -62 124 -26 27 -55 43 -100 57 -68 21 -90
22 -191 9z m157 -167 c26 -34 31 -99 37 -543 l7 -456 -25 -29 c-22 -26 -32
-29 -81 -28 -44 0 -61 5 -81 24 -24 23 -25 27 -26 159 0 75 -5 161 -10 191 -9
53 -10 64 -7 113 0 12 0 124 -1 248 -3 244 5 301 42 321 55 29 121 29 145 0z"/>
<path d="M7836 5184 c-65 -20 -135 -91 -158 -160 -47 -137 -2 -283 157 -514
103 -150 178 -278 204 -348 49 -131 -10 -226 -120 -193 -52 16 -70 47 -76 129
-3 37 -10 73 -16 80 -6 7 -36 12 -83 12 -90 0 -100 -11 -89 -103 20 -180 103
-267 271 -284 124 -13 232 27 221 83 -3 17 2 24 19 28 32 8 42 31 55 120 19
140 -25 247 -234 558 -69 104 -133 211 -142 239 -43 129 25 233 130 199 53
-17 69 -44 75 -119 l5 -66 78 -1 c43 0 81 4 84 9 3 5 5 41 4 81 -1 89 -36 165
-98 212 -69 52 -188 68 -287 38z m314 -248 c0 -3 -4 -8 -10 -11 -5 -3 -10 -1
-10 4 0 6 5 11 10 11 6 0 10 -2 10 -4z"/>
<path d="M5880 5180 c-12 -7 -16 -32 -19 -116 -1 -68 2 -109 8 -114 7 -4 8
-21 3 -51 -5 -24 -8 -281 -8 -569 l1 -525 38 -3 c28 -2 37 0 37 12 0 20 16 21
24 1 7 -19 50 -20 65 -1 8 9 12 57 12 133 -1 65 1 363 4 662 2 342 0 551 -6
563 -8 15 -22 18 -77 18 -37 0 -74 -5 -82 -10z"/>
<path d="M3815 5167 c-12 -28 2 -491 14 -495 8 -3 9 -8 2 -16 -9 -10 -12 -144
-8 -326 0 -19 -2 -141 -6 -270 -4 -161 -3 -238 5 -247 7 -8 35 -13 79 -13 60
0 70 3 81 23 9 16 14 85 15 247 1 124 2 244 2 266 l1 42 98 4 c118 4 178 29
223 91 50 69 63 132 63 314 1 153 0 163 -22 192 -12 17 -18 31 -12 31 18 0 11
26 -21 69 -21 29 -49 51 -87 69 -54 25 -67 27 -239 30 -153 3 -184 2 -188 -11z
m328 -169 c11 -5 29 -31 40 -56 19 -41 22 -63 20 -179 -1 -133 -11 -177 -43
-194 -58 -30 -77 -35 -108 -27 -21 6 -36 18 -42 34 -6 14 -13 115 -17 225 -5
167 -4 202 8 210 16 10 115 1 142 -13z"/>
<path d="M4532 5171 c-11 -6 -12 -70 -8 -332 3 -178 7 -480 8 -671 2 -190 7
-350 11 -354 11 -12 437 -4 459 7 14 7 18 22 18 64 0 89 7 85 -155 85 l-142 0
-6 68 c-4 37 -7 142 -7 234 l0 167 113 3 112 3 3 70 c2 57 0 72 -14 82 -21 16
-184 18 -184 3 0 -5 -7 -10 -15 -10 -13 0 -15 31 -15 215 l0 214 143 3 142 3
0 75 0 75 -225 2 c-124 2 -231 -1 -238 -6z"/>
<path d="M5136 5164 c-8 -22 -6 -1293 3 -1324 7 -25 8 -25 141 -28 277 -7 365
36 410 198 15 54 21 240 8 257 -5 7 -5 14 1 18 7 4 9 93 5 268 -9 432 -18 491
-91 563 -51 52 -110 64 -304 64 -143 0 -168 -2 -173 -16z m349 -170 c14 -15
26 -43 29 -67 5 -35 18 -731 16 -831 -1 -39 -19 -75 -51 -98 -32 -24 -142 -37
-154 -18 -9 15 -20 1002 -12 1024 5 13 22 16 77 16 64 0 73 -3 95 -26z"/>
<path d="M6222 5167 c-7 -8 -10 -223 -9 -668 2 -539 4 -659 16 -672 11 -14 35
-17 152 -17 261 0 343 39 388 185 19 59 20 95 21 458 0 216 -3 397 -7 401 -5
4 -8 36 -9 71 -1 117 -66 210 -170 241 -63 19 -367 20 -382 1z m335 -162 c12
-8 26 -30 32 -48 9 -25 26 -713 21 -861 -1 -51 -28 -93 -71 -110 -45 -18 -125
-21 -134 -6 -9 15 -20 981 -11 1014 6 25 9 26 74 26 44 0 75 -5 89 -15z"/>
</g>
</svg>
